<mxfile host="app.diagrams.net" modified="2023-09-19T14:50:07.428Z" agent="Mozilla/5.0 (Windows NT 10.0; Win64; x64) AppleWebKit/537.36 (KHTML, like Gecko) Chrome/116.0.0.0 Safari/537.36" version="21.7.5" etag="CGDY9yXHt4w335hiwXhO" type="github">
  <diagram name="PÃ¡gina-1" id="bYkdZA5IKxDF0_UbWhjp">
    <mxGraphModel>
      <root>
        <mxCell id="0" />
        <mxCell id="1" parent="0" />
      </root>
    </mxGraphModel>
  </diagram>
</mxfile>
